<mxfile host="Electron" modified="2023-05-17T16:38:39.879Z" agent="Mozilla/5.0 (X11; Linux x86_64) AppleWebKit/537.36 (KHTML, like Gecko) draw.io/21.2.8 Chrome/112.0.5615.165 Electron/24.2.0 Safari/537.36" etag="uSR9Gi8FAb5m_C6JeOI3" version="21.2.8" type="device">
  <diagram name="Page-1" id="TFjhG5w0r3QZyV2KyRJE">
    <mxGraphModel dx="5697" dy="3620" grid="1" gridSize="10" guides="1" tooltips="1" connect="1" arrows="1" fold="1" page="0" pageScale="1" pageWidth="850" pageHeight="1100" math="0" shadow="0">
      <root>
        <mxCell id="0" />
        <mxCell id="1" parent="0" />
        <mxCell id="3aAR46jVDKIwF3JjNnot-1" value="&lt;font style=&quot;font-size: 30px;&quot;&gt;PHILOSOPHY&lt;/font&gt;" style="rounded=1;whiteSpace=wrap;html=1;fillColor=#000000;fontColor=#FFFFFF;aspect=fixed;fontSize=30;" vertex="1" parent="1">
          <mxGeometry x="-70" y="110" width="230" height="147.55" as="geometry" />
        </mxCell>
        <mxCell id="3aAR46jVDKIwF3JjNnot-2" value="&lt;font style=&quot;font-size: 30px;&quot;&gt;SCIENCE&lt;/font&gt;" style="rounded=1;whiteSpace=wrap;html=1;fillColor=#000000;fontColor=#FFFFFF;aspect=fixed;fontSize=30;" vertex="1" parent="1">
          <mxGeometry x="210" y="110" width="230" height="147.55" as="geometry" />
        </mxCell>
        <mxCell id="3aAR46jVDKIwF3JjNnot-3" value="&lt;font style=&quot;font-size: 30px;&quot;&gt;ENGINEERING&lt;/font&gt;" style="rounded=1;whiteSpace=wrap;html=1;fillColor=#000000;fontColor=#FFFFFF;aspect=fixed;fontSize=30;" vertex="1" parent="1">
          <mxGeometry x="490" y="110" width="230" height="147.55" as="geometry" />
        </mxCell>
        <mxCell id="3aAR46jVDKIwF3JjNnot-4" value="&lt;font style=&quot;font-size: 30px;&quot;&gt;DEVELOP&lt;/font&gt;" style="rounded=1;whiteSpace=wrap;html=1;fillColor=#000000;fontColor=#FFFFFF;aspect=fixed;fontSize=30;" vertex="1" parent="1">
          <mxGeometry x="770" y="110" width="230" height="147.55" as="geometry" />
        </mxCell>
        <mxCell id="3aAR46jVDKIwF3JjNnot-5" value="&lt;font style=&quot;font-size: 30px;&quot;&gt;OPERATE&lt;/font&gt;" style="rounded=1;whiteSpace=wrap;html=1;fillColor=#000000;fontColor=#FFFFFF;aspect=fixed;fontSize=30;" vertex="1" parent="1">
          <mxGeometry x="1050" y="110" width="230" height="147.55" as="geometry" />
        </mxCell>
        <mxCell id="3aAR46jVDKIwF3JjNnot-6" value="&lt;font style=&quot;font-size: 30px;&quot;&gt;MATERIAL&lt;/font&gt;" style="rounded=1;whiteSpace=wrap;html=1;fillColor=#994C00;fontColor=#FFFFFF;aspect=fixed;fontSize=30;" vertex="1" parent="1">
          <mxGeometry x="-250" y="720" width="230" height="147.55" as="geometry" />
        </mxCell>
        <mxCell id="3aAR46jVDKIwF3JjNnot-7" value="&lt;font style=&quot;font-size: 30px;&quot;&gt;ENERGY&lt;/font&gt;" style="rounded=1;whiteSpace=wrap;html=1;fillColor=#994C00;fontColor=#FFFFFF;aspect=fixed;fontSize=30;" vertex="1" parent="1">
          <mxGeometry x="-250" y="560" width="230" height="147.55" as="geometry" />
        </mxCell>
        <mxCell id="3aAR46jVDKIwF3JjNnot-8" value="&lt;font style=&quot;font-size: 30px;&quot;&gt;INFORMATION&lt;/font&gt;" style="rounded=1;whiteSpace=wrap;html=1;fillColor=#994C00;fontColor=#FFFFFF;aspect=fixed;fontSize=30;" vertex="1" parent="1">
          <mxGeometry x="-250" y="400" width="230" height="147.55" as="geometry" />
        </mxCell>
        <mxCell id="3aAR46jVDKIwF3JjNnot-10" value="FORM" style="ellipse;whiteSpace=wrap;html=1;rounded=1;strokeColor=#005700;fontFamily=Helvetica;fontSize=36;fillColor=#008a00;aspect=fixed;fontColor=#ffffff;" vertex="1" parent="1">
          <mxGeometry x="515" y="-170" width="180" height="172.8" as="geometry" />
        </mxCell>
        <mxCell id="3aAR46jVDKIwF3JjNnot-11" value="CONTENT" style="ellipse;whiteSpace=wrap;html=1;rounded=1;strokeColor=#005700;fontFamily=Helvetica;fontSize=36;fillColor=#008a00;aspect=fixed;fontColor=#ffffff;" vertex="1" parent="1">
          <mxGeometry x="-560" y="547.2" width="180" height="172.8" as="geometry" />
        </mxCell>
        <mxCell id="3aAR46jVDKIwF3JjNnot-14" value="" style="endArrow=none;html=1;rounded=0;fontFamily=Helvetica;fontSize=12;fontColor=#FFFFFF;exitX=0.5;exitY=0;exitDx=0;exitDy=0;entryX=0;entryY=0.5;entryDx=0;entryDy=0;" edge="1" parent="1" source="3aAR46jVDKIwF3JjNnot-11" target="3aAR46jVDKIwF3JjNnot-10">
          <mxGeometry width="50" height="50" relative="1" as="geometry">
            <mxPoint x="760" y="350" as="sourcePoint" />
            <mxPoint x="810" y="300" as="targetPoint" />
            <Array as="points">
              <mxPoint x="-480" y="-80" />
            </Array>
          </mxGeometry>
        </mxCell>
        <mxCell id="3aAR46jVDKIwF3JjNnot-16" value="STORAGE&lt;br style=&quot;font-size: 24px;&quot;&gt;" style="ellipse;whiteSpace=wrap;html=1;rounded=1;strokeColor=#005700;fontFamily=Helvetica;fontSize=24;fillColor=#008a00;aspect=fixed;fontColor=#ffffff;" vertex="1" parent="1">
          <mxGeometry x="-240" y="246.39999999999998" width="160" height="153.6" as="geometry" />
        </mxCell>
        <mxCell id="3aAR46jVDKIwF3JjNnot-17" value="TRANSPORT" style="ellipse;whiteSpace=wrap;html=1;rounded=1;strokeColor=#005700;fontFamily=Helvetica;fontSize=24;fillColor=#008a00;aspect=fixed;fontColor=#ffffff;" vertex="1" parent="1">
          <mxGeometry x="-110" y="280" width="160" height="153.6" as="geometry" />
        </mxCell>
        <mxCell id="3aAR46jVDKIwF3JjNnot-20" value="&lt;h1 style=&quot;font-size: 30px;&quot;&gt;MAINTENANCE&lt;/h1&gt;&lt;p style=&quot;font-size: 30px;&quot;&gt;maintenance is to rebuild contrary to the natural condition. The greater the difference the faster the decay.&lt;/p&gt;" style="text;html=1;strokeColor=none;fillColor=none;spacing=5;spacingTop=-20;whiteSpace=wrap;overflow=hidden;rounded=0;fontSize=30;fontFamily=Helvetica;fontColor=#000000;" vertex="1" parent="1">
          <mxGeometry x="710" y="-470" width="660" height="270" as="geometry" />
        </mxCell>
        <mxCell id="3aAR46jVDKIwF3JjNnot-21" value="&lt;h1 style=&quot;font-size: 30px;&quot;&gt;POSSIBILITY&lt;/h1&gt;&lt;p style=&quot;font-size: 30px;&quot;&gt;generate possibility space and resolution&lt;/p&gt;" style="text;html=1;strokeColor=none;fillColor=none;spacing=5;spacingTop=-20;whiteSpace=wrap;overflow=hidden;rounded=0;fontSize=30;fontFamily=Helvetica;fontColor=#000000;" vertex="1" parent="1">
          <mxGeometry x="660" y="498.6" width="660" height="270" as="geometry" />
        </mxCell>
        <mxCell id="3aAR46jVDKIwF3JjNnot-22" value="&lt;font style=&quot;font-size: 30px;&quot;&gt;GATHERING&lt;/font&gt;" style="rounded=1;whiteSpace=wrap;html=1;fillColor=#994C00;fontColor=#FFFFFF;aspect=fixed;fontSize=30;" vertex="1" parent="1">
          <mxGeometry x="620" y="890" width="230" height="147.55" as="geometry" />
        </mxCell>
        <mxCell id="3aAR46jVDKIwF3JjNnot-23" value="&lt;font style=&quot;font-size: 30px;&quot;&gt;DESIGN&lt;/font&gt;" style="rounded=1;whiteSpace=wrap;html=1;fillColor=#994C00;fontColor=#FFFFFF;aspect=fixed;fontSize=30;" vertex="1" parent="1">
          <mxGeometry x="860" y="890" width="230" height="147.55" as="geometry" />
        </mxCell>
        <mxCell id="3aAR46jVDKIwF3JjNnot-24" value="&lt;font style=&quot;font-size: 30px;&quot;&gt;INFORMATION&lt;/font&gt;" style="rounded=1;whiteSpace=wrap;html=1;fillColor=#994C00;fontColor=#FFFFFF;aspect=fixed;fontSize=30;" vertex="1" parent="1">
          <mxGeometry x="380" y="1050" width="230" height="147.55" as="geometry" />
        </mxCell>
        <mxCell id="3aAR46jVDKIwF3JjNnot-25" value="MATERIAL" style="rounded=1;whiteSpace=wrap;html=1;fillColor=#994C00;fontColor=#FFFFFF;aspect=fixed;fontSize=30;" vertex="1" parent="1">
          <mxGeometry x="370" y="1220" width="230" height="147.55" as="geometry" />
        </mxCell>
        <mxCell id="3aAR46jVDKIwF3JjNnot-28" value="LOGISTICS" style="rounded=1;whiteSpace=wrap;html=1;fillColor=#994C00;fontColor=#FFFFFF;aspect=fixed;fontSize=30;" vertex="1" parent="1">
          <mxGeometry x="620" y="1210" width="230" height="147.55" as="geometry" />
        </mxCell>
        <mxCell id="3aAR46jVDKIwF3JjNnot-29" value="BUILD" style="rounded=1;whiteSpace=wrap;html=1;fillColor=#994C00;fontColor=#FFFFFF;aspect=fixed;fontSize=30;" vertex="1" parent="1">
          <mxGeometry x="870" y="1210" width="230" height="147.55" as="geometry" />
        </mxCell>
        <mxCell id="3aAR46jVDKIwF3JjNnot-30" value="RESEARCH" style="rounded=1;whiteSpace=wrap;html=1;fillColor=#994C00;fontColor=#FFFFFF;aspect=fixed;fontSize=30;" vertex="1" parent="1">
          <mxGeometry x="620" y="1050" width="230" height="147.55" as="geometry" />
        </mxCell>
        <mxCell id="3aAR46jVDKIwF3JjNnot-31" value="ENGINEERING" style="rounded=1;whiteSpace=wrap;html=1;fillColor=#994C00;fontColor=#FFFFFF;aspect=fixed;fontSize=30;" vertex="1" parent="1">
          <mxGeometry x="870" y="1050" width="230" height="147.55" as="geometry" />
        </mxCell>
        <mxCell id="3aAR46jVDKIwF3JjNnot-32" value="&lt;h1 style=&quot;font-size: 30px;&quot;&gt;POTENTIAL AND ACTUAL&lt;/h1&gt;&lt;p&gt;Potential actual actualizer&lt;/p&gt;&lt;p&gt;nouns and verbs&lt;/p&gt;&lt;p&gt;goods and services&amp;nbsp;&lt;/p&gt;&lt;p&gt;good technique&amp;nbsp;&lt;/p&gt;&lt;p&gt;series of conditions/states/goods&lt;/p&gt;&lt;p&gt;fighting a natural condition, greater opposition, greater maintenance required&lt;/p&gt;&lt;p&gt;can be created through understanding the mechanics&lt;/p&gt;&lt;p&gt;tool/technique layer&lt;/p&gt;&lt;p&gt;possibility space or range&lt;/p&gt;&lt;div&gt;&lt;br&gt;&lt;/div&gt;" style="text;html=1;strokeColor=none;fillColor=none;spacing=5;spacingTop=-20;whiteSpace=wrap;overflow=hidden;rounded=0;fontSize=30;fontFamily=Helvetica;fontColor=#000000;" vertex="1" parent="1">
          <mxGeometry x="-800" y="-740" width="690" height="800" as="geometry" />
        </mxCell>
        <mxCell id="3aAR46jVDKIwF3JjNnot-33" value="&lt;h1 style=&quot;font-size: 30px;&quot;&gt;MAINTENANCE&lt;/h1&gt;&lt;p style=&quot;font-size: 30px;&quot;&gt;Systems science website and pdf concepts and pictures&lt;/p&gt;&lt;p&gt;Relationships&lt;/p&gt;&lt;p&gt;Concept Page Template&lt;/p&gt;&lt;p&gt;Structure webpage with adept&lt;/p&gt;&lt;p&gt;Analogy paradigms, food, animals, colors, chemistry,&amp;nbsp;&lt;/p&gt;&lt;p&gt;Possibility space&lt;/p&gt;&lt;p&gt;Probability space interpreting the value of possibility, act according to new information but common streams&lt;/p&gt;" style="text;html=1;strokeColor=none;fillColor=none;spacing=5;spacingTop=-20;whiteSpace=wrap;overflow=hidden;rounded=0;fontSize=30;fontFamily=Helvetica;fontColor=#000000;" vertex="1" parent="1">
          <mxGeometry x="-320" y="-1170" width="1000" height="820" as="geometry" />
        </mxCell>
        <mxCell id="3aAR46jVDKIwF3JjNnot-34" value="&lt;h1 style=&quot;font-size: 30px;&quot;&gt;MAINTENANCE&lt;/h1&gt;&lt;p&gt;Intro&lt;/p&gt;&lt;p&gt;Use mathematician guide&lt;/p&gt;&lt;p&gt;Use all possible outcomes&lt;/p&gt;&lt;p&gt;What if opposite&lt;/p&gt;&lt;p&gt;Analogy&lt;/p&gt;&lt;p&gt;Diagram&lt;/p&gt;&lt;p&gt;Explanation&lt;/p&gt;&lt;p&gt;Picture&lt;/p&gt;&lt;p&gt;Technical&lt;/p&gt;&lt;p&gt;Summary&lt;/p&gt;&lt;p&gt;Grand scheme relationship&lt;/p&gt;" style="text;html=1;strokeColor=none;fillColor=none;spacing=5;spacingTop=-20;whiteSpace=wrap;overflow=hidden;rounded=0;fontSize=30;fontFamily=Helvetica;fontColor=#000000;" vertex="1" parent="1">
          <mxGeometry x="1440" y="-130" width="780" height="960" as="geometry" />
        </mxCell>
        <mxCell id="3aAR46jVDKIwF3JjNnot-36" value="&lt;h1 style=&quot;font-size: 30px;&quot;&gt;MAINTENANCE&lt;/h1&gt;&lt;p&gt;Analogy types&lt;/p&gt;&lt;p&gt;fruits/food/milkshake&lt;/p&gt;&lt;p&gt;animals&lt;/p&gt;&lt;p&gt;colors&lt;/p&gt;&lt;p&gt;martial arts&lt;/p&gt;&lt;p&gt;weapons&lt;/p&gt;&lt;p&gt;cars&lt;/p&gt;&lt;div&gt;&lt;br&gt;&lt;/div&gt;" style="text;html=1;strokeColor=none;fillColor=none;spacing=5;spacingTop=-20;whiteSpace=wrap;overflow=hidden;rounded=0;fontSize=30;fontFamily=Helvetica;fontColor=#000000;" vertex="1" parent="1">
          <mxGeometry x="-1550" y="210" width="780" height="780" as="geometry" />
        </mxCell>
        <mxCell id="3aAR46jVDKIwF3JjNnot-37" value="&lt;h1 style=&quot;font-size: 30px;&quot;&gt;MAINTENANCE&lt;/h1&gt;&lt;p&gt;Problems with English language&lt;/p&gt;&lt;p&gt;No letter C, k and s do the same&lt;/p&gt;&lt;p&gt;no capital letters, have a symbol at front of word, $adam&lt;/p&gt;&lt;p&gt;also takes up unnecessary space in ASCII&amp;nbsp;&lt;/p&gt;" style="text;html=1;strokeColor=none;fillColor=none;spacing=5;spacingTop=-20;whiteSpace=wrap;overflow=hidden;rounded=0;fontSize=30;fontFamily=Helvetica;fontColor=#000000;" vertex="1" parent="1">
          <mxGeometry x="-1220" y="867.55" width="1180" height="342.45" as="geometry" />
        </mxCell>
        <mxCell id="3aAR46jVDKIwF3JjNnot-39" value="&lt;h1 style=&quot;font-size: 30px;&quot;&gt;MAINTENANCE&lt;/h1&gt;&lt;p&gt;Possibility Space&lt;/p&gt;&lt;p&gt;values can change depending on the conditions&lt;/p&gt;&lt;p&gt;general likelihood&lt;/p&gt;" style="text;html=1;strokeColor=none;fillColor=none;spacing=5;spacingTop=-20;whiteSpace=wrap;overflow=hidden;rounded=0;fontSize=30;fontFamily=Helvetica;fontColor=#000000;" vertex="1" parent="1">
          <mxGeometry x="1730" y="-960" width="690" height="330" as="geometry" />
        </mxCell>
        <mxCell id="3aAR46jVDKIwF3JjNnot-40" value="&lt;h1 style=&quot;font-size: 30px;&quot;&gt;MAINTENANCE&lt;/h1&gt;&lt;p&gt;analogy to images&lt;/p&gt;&lt;p&gt;sculpting data, start with large chunks first, similar to artists in drawing with larger parts first&lt;/p&gt;&lt;p&gt;dithering, contrast of data points in range, can smooth with fuzzy data point at edge, impressionism&lt;/p&gt;&lt;p&gt;conditional data points and range&lt;/p&gt;&lt;div&gt;&lt;br&gt;&lt;/div&gt;" style="text;html=1;strokeColor=none;fillColor=none;spacing=5;spacingTop=-20;whiteSpace=wrap;overflow=hidden;rounded=0;fontSize=30;fontFamily=Helvetica;fontColor=#000000;" vertex="1" parent="1">
          <mxGeometry x="850" y="-1010" width="740" height="490" as="geometry" />
        </mxCell>
        <mxCell id="3aAR46jVDKIwF3JjNnot-41" value="" style="rounded=1;whiteSpace=wrap;html=1;fontFamily=Helvetica;fontSize=12;" vertex="1" parent="1">
          <mxGeometry x="-1090" y="228.2" width="590" height="190" as="geometry" />
        </mxCell>
        <mxCell id="3aAR46jVDKIwF3JjNnot-42" value="" style="endArrow=classic;html=1;rounded=0;fontFamily=Helvetica;fontSize=12;fontColor=#FFFFFF;" edge="1" parent="1">
          <mxGeometry relative="1" as="geometry">
            <mxPoint x="-1010" y="238.2" as="sourcePoint" />
            <mxPoint x="-1010" y="408.2" as="targetPoint" />
          </mxGeometry>
        </mxCell>
        <mxCell id="3aAR46jVDKIwF3JjNnot-43" value="" style="shape=message;html=1;outlineConnect=0;rounded=1;strokeColor=default;fontFamily=Helvetica;fontSize=12;fontColor=#FFFFFF;fillColor=#000000;" vertex="1" parent="3aAR46jVDKIwF3JjNnot-42">
          <mxGeometry width="20" height="80" relative="1" as="geometry">
            <mxPoint x="-10" y="-47" as="offset" />
          </mxGeometry>
        </mxCell>
      </root>
    </mxGraphModel>
  </diagram>
</mxfile>
